G04 #@! TF.GenerationSoftware,KiCad,Pcbnew,(2017-09-19 revision dddaa7e69)-makepkg*
G04 #@! TF.CreationDate,2017-10-06T17:35:26-07:00*
G04 #@! TF.ProjectId,progAdapt,70726F6741646170742E6B696361645F,rev?*
G04 #@! TF.SameCoordinates,Original*
G04 #@! TF.FileFunction,Copper,L2,Bot,Signal*
G04 #@! TF.FilePolarity,Positive*
%FSLAX46Y46*%
G04 Gerber Fmt 4.6, Leading zero omitted, Abs format (unit mm)*
G04 Created by KiCad (PCBNEW (2017-09-19 revision dddaa7e69)-makepkg) date 10/06/17 17:35:26*
%MOMM*%
%LPD*%
G01*
G04 APERTURE LIST*
%ADD10O,1.700000X1.700000*%
%ADD11R,1.700000X1.700000*%
%ADD12C,1.200000*%
%ADD13C,0.300000*%
%ADD14C,0.254000*%
G04 APERTURE END LIST*
D10*
X124258095Y-172832500D03*
X124258095Y-170292500D03*
X124258095Y-167752500D03*
X124258095Y-165212500D03*
X124258095Y-162672500D03*
D11*
X124258095Y-160132500D03*
D12*
X134001000Y-169005000D03*
X134001000Y-167005000D03*
X134001000Y-165005000D03*
X135001000Y-168005000D03*
X135001000Y-166005000D03*
X136001000Y-167005000D03*
X130159000Y-167005000D03*
X129159000Y-166005000D03*
X129159000Y-168005000D03*
X128159000Y-165005000D03*
X128159000Y-167005000D03*
X128159000Y-169005000D03*
D13*
X124258095Y-172832500D02*
X128030500Y-172832500D01*
X128030500Y-172832500D02*
X131191000Y-169672000D01*
X130758999Y-167604999D02*
X130159000Y-167005000D01*
X131191000Y-169672000D02*
X131191000Y-168037000D01*
X131191000Y-168037000D02*
X130758999Y-167604999D01*
X124258095Y-170292500D02*
X126111000Y-168439595D01*
X126111000Y-168439595D02*
X126111000Y-167005000D01*
X126111000Y-167005000D02*
X127111000Y-166005000D01*
X127111000Y-166005000D02*
X129159000Y-166005000D01*
X124258095Y-167752500D02*
X124965201Y-167752500D01*
X124258095Y-165212500D02*
X127951500Y-165212500D01*
X127951500Y-165212500D02*
X128159000Y-165005000D01*
D14*
G36*
X131703000Y-167005000D02*
X131731697Y-167149272D01*
X131813421Y-167271579D01*
X131889629Y-167322500D01*
X131813421Y-167373421D01*
X131731697Y-167495728D01*
X131703000Y-167640000D01*
X131703000Y-174248000D01*
X122297000Y-174248000D01*
X122297000Y-167752500D01*
X123058036Y-167752500D01*
X123147630Y-168202918D01*
X123402771Y-168584765D01*
X123784618Y-168839906D01*
X124235036Y-168929500D01*
X124281154Y-168929500D01*
X124731572Y-168839906D01*
X125113419Y-168584765D01*
X125368560Y-168202918D01*
X125458154Y-167752500D01*
X125368560Y-167302082D01*
X125113419Y-166920235D01*
X124731572Y-166665094D01*
X124281154Y-166575500D01*
X124235036Y-166575500D01*
X123784618Y-166665094D01*
X123402771Y-166920235D01*
X123147630Y-167302082D01*
X123058036Y-167752500D01*
X122297000Y-167752500D01*
X122297000Y-165212500D01*
X123058036Y-165212500D01*
X123147630Y-165662918D01*
X123402771Y-166044765D01*
X123784618Y-166299906D01*
X124235036Y-166389500D01*
X124281154Y-166389500D01*
X124731572Y-166299906D01*
X125113419Y-166044765D01*
X125350799Y-165689500D01*
X126751920Y-165689500D01*
X125773710Y-166667710D01*
X125670309Y-166822460D01*
X125634000Y-167005000D01*
X125634000Y-168242015D01*
X124680984Y-169195031D01*
X124281154Y-169115500D01*
X124235036Y-169115500D01*
X123784618Y-169205094D01*
X123402771Y-169460235D01*
X123147630Y-169842082D01*
X123058036Y-170292500D01*
X123147630Y-170742918D01*
X123402771Y-171124765D01*
X123784618Y-171379906D01*
X124235036Y-171469500D01*
X124281154Y-171469500D01*
X124731572Y-171379906D01*
X125113419Y-171124765D01*
X125368560Y-170742918D01*
X125458154Y-170292500D01*
X125373663Y-169867735D01*
X127475870Y-169867735D01*
X127525383Y-170093164D01*
X127990036Y-170252807D01*
X128480413Y-170222482D01*
X128792617Y-170093164D01*
X128842130Y-169867735D01*
X128159000Y-169184605D01*
X127475870Y-169867735D01*
X125373663Y-169867735D01*
X125370971Y-169854204D01*
X126389139Y-168836036D01*
X126911193Y-168836036D01*
X126941518Y-169326413D01*
X127070836Y-169638617D01*
X127296265Y-169688130D01*
X127979395Y-169005000D01*
X127296265Y-168321870D01*
X127070836Y-168371383D01*
X126911193Y-168836036D01*
X126389139Y-168836036D01*
X126448290Y-168776885D01*
X126551691Y-168622136D01*
X126588000Y-168439595D01*
X126588000Y-167202580D01*
X126913718Y-166876862D01*
X126941518Y-167326413D01*
X127070836Y-167638617D01*
X127296265Y-167688130D01*
X127979395Y-167005000D01*
X127965253Y-166990858D01*
X128144858Y-166811253D01*
X128159000Y-166825395D01*
X128173143Y-166811253D01*
X128352748Y-166990858D01*
X128338605Y-167005000D01*
X128352748Y-167019143D01*
X128173143Y-167198748D01*
X128159000Y-167184605D01*
X127475870Y-167867735D01*
X127506019Y-168005000D01*
X127475870Y-168142265D01*
X128159000Y-168825395D01*
X128173143Y-168811253D01*
X128352748Y-168990858D01*
X128338605Y-169005000D01*
X129021735Y-169688130D01*
X129247164Y-169638617D01*
X129373752Y-169270173D01*
X129457495Y-169472846D01*
X129689930Y-169705688D01*
X129993778Y-169831856D01*
X130322779Y-169832143D01*
X130379864Y-169808556D01*
X127832920Y-172355500D01*
X125350799Y-172355500D01*
X125113419Y-172000235D01*
X124731572Y-171745094D01*
X124281154Y-171655500D01*
X124235036Y-171655500D01*
X123784618Y-171745094D01*
X123402771Y-172000235D01*
X123147630Y-172382082D01*
X123058036Y-172832500D01*
X123147630Y-173282918D01*
X123402771Y-173664765D01*
X123784618Y-173919906D01*
X124235036Y-174009500D01*
X124281154Y-174009500D01*
X124731572Y-173919906D01*
X125113419Y-173664765D01*
X125350799Y-173309500D01*
X128030500Y-173309500D01*
X128213040Y-173273191D01*
X128367790Y-173169790D01*
X131528290Y-170009290D01*
X131631691Y-169854540D01*
X131668000Y-169672000D01*
X131668000Y-168037000D01*
X131631691Y-167854460D01*
X131528290Y-167699710D01*
X131066164Y-167237584D01*
X131085839Y-167190201D01*
X131086161Y-166821417D01*
X130945331Y-166480583D01*
X130684789Y-166219586D01*
X130344201Y-166078161D01*
X130085937Y-166077935D01*
X130086152Y-165831937D01*
X130322779Y-165832143D01*
X130626846Y-165706505D01*
X130859688Y-165474070D01*
X130985856Y-165170222D01*
X130986143Y-164841221D01*
X130860505Y-164537154D01*
X130628070Y-164304312D01*
X130324222Y-164178144D01*
X129995221Y-164177857D01*
X129691154Y-164303495D01*
X129458312Y-164535930D01*
X129332144Y-164839778D01*
X129331936Y-165078150D01*
X129085937Y-165077935D01*
X129086161Y-164821417D01*
X128945331Y-164480583D01*
X128684789Y-164219586D01*
X128344201Y-164078161D01*
X127975417Y-164077839D01*
X127634583Y-164218669D01*
X127373586Y-164479211D01*
X127267165Y-164735500D01*
X125350799Y-164735500D01*
X125113419Y-164380235D01*
X124731572Y-164125094D01*
X124281154Y-164035500D01*
X124235036Y-164035500D01*
X123784618Y-164125094D01*
X123402771Y-164380235D01*
X123147630Y-164762082D01*
X123058036Y-165212500D01*
X122297000Y-165212500D01*
X122297000Y-160418250D01*
X122773095Y-160418250D01*
X122773095Y-161108810D01*
X122869768Y-161342199D01*
X123048397Y-161520827D01*
X123281786Y-161617500D01*
X123736119Y-161617500D01*
X123402771Y-161840235D01*
X123147630Y-162222082D01*
X123058036Y-162672500D01*
X123147630Y-163122918D01*
X123402771Y-163504765D01*
X123784618Y-163759906D01*
X124235036Y-163849500D01*
X124281154Y-163849500D01*
X124731572Y-163759906D01*
X125113419Y-163504765D01*
X125368560Y-163122918D01*
X125458154Y-162672500D01*
X125368560Y-162222082D01*
X125113419Y-161840235D01*
X124780071Y-161617500D01*
X125234404Y-161617500D01*
X125467793Y-161520827D01*
X125646422Y-161342199D01*
X125743095Y-161108810D01*
X125743095Y-160418250D01*
X125584345Y-160259500D01*
X124385095Y-160259500D01*
X124385095Y-160279500D01*
X124131095Y-160279500D01*
X124131095Y-160259500D01*
X122931845Y-160259500D01*
X122773095Y-160418250D01*
X122297000Y-160418250D01*
X122297000Y-159156190D01*
X122773095Y-159156190D01*
X122773095Y-159846750D01*
X122931845Y-160005500D01*
X124131095Y-160005500D01*
X124131095Y-158806250D01*
X124385095Y-158806250D01*
X124385095Y-160005500D01*
X125584345Y-160005500D01*
X125743095Y-159846750D01*
X125743095Y-159156190D01*
X125646422Y-158922801D01*
X125467793Y-158744173D01*
X125234404Y-158647500D01*
X124543845Y-158647500D01*
X124385095Y-158806250D01*
X124131095Y-158806250D01*
X123972345Y-158647500D01*
X123281786Y-158647500D01*
X123048397Y-158744173D01*
X122869768Y-158922801D01*
X122773095Y-159156190D01*
X122297000Y-159156190D01*
X122297000Y-158492000D01*
X131703000Y-158492000D01*
X131703000Y-167005000D01*
X131703000Y-167005000D01*
G37*
X131703000Y-167005000D02*
X131731697Y-167149272D01*
X131813421Y-167271579D01*
X131889629Y-167322500D01*
X131813421Y-167373421D01*
X131731697Y-167495728D01*
X131703000Y-167640000D01*
X131703000Y-174248000D01*
X122297000Y-174248000D01*
X122297000Y-167752500D01*
X123058036Y-167752500D01*
X123147630Y-168202918D01*
X123402771Y-168584765D01*
X123784618Y-168839906D01*
X124235036Y-168929500D01*
X124281154Y-168929500D01*
X124731572Y-168839906D01*
X125113419Y-168584765D01*
X125368560Y-168202918D01*
X125458154Y-167752500D01*
X125368560Y-167302082D01*
X125113419Y-166920235D01*
X124731572Y-166665094D01*
X124281154Y-166575500D01*
X124235036Y-166575500D01*
X123784618Y-166665094D01*
X123402771Y-166920235D01*
X123147630Y-167302082D01*
X123058036Y-167752500D01*
X122297000Y-167752500D01*
X122297000Y-165212500D01*
X123058036Y-165212500D01*
X123147630Y-165662918D01*
X123402771Y-166044765D01*
X123784618Y-166299906D01*
X124235036Y-166389500D01*
X124281154Y-166389500D01*
X124731572Y-166299906D01*
X125113419Y-166044765D01*
X125350799Y-165689500D01*
X126751920Y-165689500D01*
X125773710Y-166667710D01*
X125670309Y-166822460D01*
X125634000Y-167005000D01*
X125634000Y-168242015D01*
X124680984Y-169195031D01*
X124281154Y-169115500D01*
X124235036Y-169115500D01*
X123784618Y-169205094D01*
X123402771Y-169460235D01*
X123147630Y-169842082D01*
X123058036Y-170292500D01*
X123147630Y-170742918D01*
X123402771Y-171124765D01*
X123784618Y-171379906D01*
X124235036Y-171469500D01*
X124281154Y-171469500D01*
X124731572Y-171379906D01*
X125113419Y-171124765D01*
X125368560Y-170742918D01*
X125458154Y-170292500D01*
X125373663Y-169867735D01*
X127475870Y-169867735D01*
X127525383Y-170093164D01*
X127990036Y-170252807D01*
X128480413Y-170222482D01*
X128792617Y-170093164D01*
X128842130Y-169867735D01*
X128159000Y-169184605D01*
X127475870Y-169867735D01*
X125373663Y-169867735D01*
X125370971Y-169854204D01*
X126389139Y-168836036D01*
X126911193Y-168836036D01*
X126941518Y-169326413D01*
X127070836Y-169638617D01*
X127296265Y-169688130D01*
X127979395Y-169005000D01*
X127296265Y-168321870D01*
X127070836Y-168371383D01*
X126911193Y-168836036D01*
X126389139Y-168836036D01*
X126448290Y-168776885D01*
X126551691Y-168622136D01*
X126588000Y-168439595D01*
X126588000Y-167202580D01*
X126913718Y-166876862D01*
X126941518Y-167326413D01*
X127070836Y-167638617D01*
X127296265Y-167688130D01*
X127979395Y-167005000D01*
X127965253Y-166990858D01*
X128144858Y-166811253D01*
X128159000Y-166825395D01*
X128173143Y-166811253D01*
X128352748Y-166990858D01*
X128338605Y-167005000D01*
X128352748Y-167019143D01*
X128173143Y-167198748D01*
X128159000Y-167184605D01*
X127475870Y-167867735D01*
X127506019Y-168005000D01*
X127475870Y-168142265D01*
X128159000Y-168825395D01*
X128173143Y-168811253D01*
X128352748Y-168990858D01*
X128338605Y-169005000D01*
X129021735Y-169688130D01*
X129247164Y-169638617D01*
X129373752Y-169270173D01*
X129457495Y-169472846D01*
X129689930Y-169705688D01*
X129993778Y-169831856D01*
X130322779Y-169832143D01*
X130379864Y-169808556D01*
X127832920Y-172355500D01*
X125350799Y-172355500D01*
X125113419Y-172000235D01*
X124731572Y-171745094D01*
X124281154Y-171655500D01*
X124235036Y-171655500D01*
X123784618Y-171745094D01*
X123402771Y-172000235D01*
X123147630Y-172382082D01*
X123058036Y-172832500D01*
X123147630Y-173282918D01*
X123402771Y-173664765D01*
X123784618Y-173919906D01*
X124235036Y-174009500D01*
X124281154Y-174009500D01*
X124731572Y-173919906D01*
X125113419Y-173664765D01*
X125350799Y-173309500D01*
X128030500Y-173309500D01*
X128213040Y-173273191D01*
X128367790Y-173169790D01*
X131528290Y-170009290D01*
X131631691Y-169854540D01*
X131668000Y-169672000D01*
X131668000Y-168037000D01*
X131631691Y-167854460D01*
X131528290Y-167699710D01*
X131066164Y-167237584D01*
X131085839Y-167190201D01*
X131086161Y-166821417D01*
X130945331Y-166480583D01*
X130684789Y-166219586D01*
X130344201Y-166078161D01*
X130085937Y-166077935D01*
X130086152Y-165831937D01*
X130322779Y-165832143D01*
X130626846Y-165706505D01*
X130859688Y-165474070D01*
X130985856Y-165170222D01*
X130986143Y-164841221D01*
X130860505Y-164537154D01*
X130628070Y-164304312D01*
X130324222Y-164178144D01*
X129995221Y-164177857D01*
X129691154Y-164303495D01*
X129458312Y-164535930D01*
X129332144Y-164839778D01*
X129331936Y-165078150D01*
X129085937Y-165077935D01*
X129086161Y-164821417D01*
X128945331Y-164480583D01*
X128684789Y-164219586D01*
X128344201Y-164078161D01*
X127975417Y-164077839D01*
X127634583Y-164218669D01*
X127373586Y-164479211D01*
X127267165Y-164735500D01*
X125350799Y-164735500D01*
X125113419Y-164380235D01*
X124731572Y-164125094D01*
X124281154Y-164035500D01*
X124235036Y-164035500D01*
X123784618Y-164125094D01*
X123402771Y-164380235D01*
X123147630Y-164762082D01*
X123058036Y-165212500D01*
X122297000Y-165212500D01*
X122297000Y-160418250D01*
X122773095Y-160418250D01*
X122773095Y-161108810D01*
X122869768Y-161342199D01*
X123048397Y-161520827D01*
X123281786Y-161617500D01*
X123736119Y-161617500D01*
X123402771Y-161840235D01*
X123147630Y-162222082D01*
X123058036Y-162672500D01*
X123147630Y-163122918D01*
X123402771Y-163504765D01*
X123784618Y-163759906D01*
X124235036Y-163849500D01*
X124281154Y-163849500D01*
X124731572Y-163759906D01*
X125113419Y-163504765D01*
X125368560Y-163122918D01*
X125458154Y-162672500D01*
X125368560Y-162222082D01*
X125113419Y-161840235D01*
X124780071Y-161617500D01*
X125234404Y-161617500D01*
X125467793Y-161520827D01*
X125646422Y-161342199D01*
X125743095Y-161108810D01*
X125743095Y-160418250D01*
X125584345Y-160259500D01*
X124385095Y-160259500D01*
X124385095Y-160279500D01*
X124131095Y-160279500D01*
X124131095Y-160259500D01*
X122931845Y-160259500D01*
X122773095Y-160418250D01*
X122297000Y-160418250D01*
X122297000Y-159156190D01*
X122773095Y-159156190D01*
X122773095Y-159846750D01*
X122931845Y-160005500D01*
X124131095Y-160005500D01*
X124131095Y-158806250D01*
X124385095Y-158806250D01*
X124385095Y-160005500D01*
X125584345Y-160005500D01*
X125743095Y-159846750D01*
X125743095Y-159156190D01*
X125646422Y-158922801D01*
X125467793Y-158744173D01*
X125234404Y-158647500D01*
X124543845Y-158647500D01*
X124385095Y-158806250D01*
X124131095Y-158806250D01*
X123972345Y-158647500D01*
X123281786Y-158647500D01*
X123048397Y-158744173D01*
X122869768Y-158922801D01*
X122773095Y-159156190D01*
X122297000Y-159156190D01*
X122297000Y-158492000D01*
X131703000Y-158492000D01*
X131703000Y-167005000D01*
M02*
