M48
;DRILL file {KiCad (2017-09-19 revision dddaa7e69)-makepkg} date 10/06/17 17:35:33
;FORMAT={-:-/ absolute / metric / decimal}
FMAT,2
METRIC,TZ
T1C0.700
T2C1.000
T3C1.000
%
G90
G05
M71
T1
X128.159Y-165.005
X128.159Y-167.005
X128.159Y-169.005
X129.159Y-166.005
X129.159Y-168.005
X130.159Y-167.005
X134.001Y-165.005
X134.001Y-167.005
X134.001Y-169.005
X135.001Y-166.005
X135.001Y-168.005
X136.001Y-167.005
T2
X124.258Y-160.132
X124.258Y-162.672
X124.258Y-165.213
X124.258Y-167.752
X124.258Y-170.292
X124.258Y-172.832
T3
X130.159Y-165.005
X130.159Y-169.005
X136.001Y-165.005
X136.001Y-169.005
T0
M30
